<svg version="1.1" id="Layer_1" xmlns="http://www.w3.org/2000/svg" xmlns:xlink="http://www.w3.org/1999/xlink" x="0px" y="0px"
	 viewBox="0 0 455 455" style="enable-background:new 0 0 455 455;" xml:space="preserve">
<g>
	<path d="M199.447,249.837c0,11.873,3.985,19.388,13.053,24.096v-47.784C204.662,231.13,199.447,239.883,199.447,249.837z"/>
	<path d="M294.035,111.857l27.28-101.436h-1c-7.735,5.21-15.47,10.421-30.939,10.421C258.436,20.842,258.436,0,227.496,0
		c-30.938,0-30.938,20.842-61.876,20.842c-15.47,0-23.203-5.211-30.938-10.422h-1l27.283,101.437H294.035z"/>
	<path d="M242.5,363.851c7.838-4.981,13.053-13.734,13.053-23.688c0-11.873-3.985-19.388-13.053-24.096V363.851z"/>
	<path d="M319.232,141.857H135.768C88.693,172.087,57.5,224.899,57.5,285c0,93.888,0,170,0,170h340c0,0,0-76.112,0-170
		C397.5,224.899,366.307,172.087,319.232,141.857z M245.001,284.797c26.15,8.261,40.552,27.923,40.552,55.365
		c0,26.824-18.291,49.448-43.053,56.078v12.579h-30V396.24c-24.762-6.63-43.053-29.253-43.053-56.078h30
		c0,9.954,5.216,18.708,13.053,23.688v-57.858l-2.5-0.79c-26.151-8.261-40.553-27.923-40.553-55.365
		c0-26.824,18.291-49.448,43.053-56.078v-12.579h30v12.579c24.762,6.63,43.053,29.253,43.053,56.078h-30
		c0-9.954-5.216-18.708-13.053-23.688v57.858L245.001,284.797z"/>
</g>
<g>
</g>
<g>
</g>
<g>
</g>
<g>
</g>
<g>
</g>
<g>
</g>
<g>
</g>
<g>
</g>
<g>
</g>
<g>
</g>
<g>
</g>
<g>
</g>
<g>
</g>
<g>
</g>
<g>
</g>
</svg>
